<svg width="55" height="32" viewBox="0 0 55 32" fill="none" xmlns="http://www.w3.org/2000/svg">
<rect width="55" height="32" rx="10" fill="white"/>
<path d="M20.0518 11.6543C20.0518 12.8994 21.2236 13.9688 23.1426 14.3789L22.5713 15.4629C21.0625 15.126 19.9565 14.3716 19.3779 13.3682C18.814 14.4595 17.686 15.2798 16.126 15.6387L15.54 14.5547C17.4736 14.1445 18.6602 12.958 18.6602 11.6543H15.833V10.5557H18.6602V9.14941H20.0518V10.5557H22.8643V11.6543H20.0518ZM25.8965 9.13477V22.2451H24.5195V9.13477H25.8965ZM14.9688 16.4443C17.459 16.4443 20.7549 16.4297 23.6113 16.0635L23.7139 17.0742C22.5127 17.272 21.2749 17.3965 20.0664 17.4697V21.8496H18.6748V17.543C17.415 17.5942 16.2139 17.6016 15.1592 17.6016L14.9688 16.4443ZM39.959 19.4326V20.5752H27.9473V19.4326H33.2061V16.3125H34.583V19.4326H39.959ZM34.6123 10.9512C34.6123 13.0312 36.8975 14.9795 39.4316 15.4043L38.8311 16.5469C36.707 16.1221 34.7515 14.811 33.8799 13.002C33.0156 14.8037 31.082 16.1367 28.9727 16.5469L28.3574 15.4043C30.877 14.9795 33.1475 13.0312 33.1475 10.9512V9.95508H34.6123V10.9512Z" fill="#727272"/>
</svg>
