<svg width="90" height="91" viewBox="0 0 90 91" fill="none" xmlns="http://www.w3.org/2000/svg">
<path fill-rule="evenodd" clip-rule="evenodd" d="M45 90.5C50.9095 90.5 56.7611 89.336 62.2208 87.0746C67.6804 84.8131 72.6412 81.4984 76.8198 77.3198C80.9984 73.1412 84.3131 68.1804 86.5746 62.7208C88.836 57.2611 90 51.4095 90 45.5C90 39.5905 88.836 33.7389 86.5746 28.2792C84.3131 22.8196 80.9984 17.8588 76.8198 13.6802C72.6412 9.50156 67.6804 6.18688 62.2208 3.92542C56.7611 1.66396 50.9095 0.5 45 0.5C33.0653 0.5 21.6193 5.24106 13.1802 13.6802C4.74106 22.1193 0 33.5653 0 45.5C0 57.4347 4.74106 68.8807 13.1802 77.3198C21.6193 85.7589 33.0653 90.5 45 90.5ZM43.84 63.7L65.6398 37.5402C67.4072 35.4193 67.1207 32.2672 64.9998 30.4998V30.4998C62.8791 28.7326 59.7273 29.0189 57.9598 31.1395L39.66 53.095L32.0696 45.5012C30.1176 43.5483 26.952 43.548 24.9996 45.5004V45.5004C23.0475 47.4525 23.0475 50.6175 24.9996 52.5696L36.465 64.035V64.035C38.5433 66.1133 41.9582 65.9577 43.84 63.7V63.7Z" fill="black"/>
</svg>
