<svg width="20" height="20" viewBox="0 0 20 20" fill="none" xmlns="http://www.w3.org/2000/svg">
<path d="M14.3125 9.99996L11.8958 7.58329C11.7291 7.41663 11.6491 7.22218 11.6558 6.99996C11.6625 6.77774 11.7494 6.58329 11.9166 6.41663C12.0833 6.26385 12.2777 6.18385 12.5 6.17663C12.7222 6.1694 12.9166 6.24941 13.0833 6.41663L16.9166 10.25C17.0833 10.4166 17.1666 10.6111 17.1666 10.8333C17.1666 11.0555 17.0833 11.25 16.9166 11.4166L13.0833 15.25C12.9305 15.4027 12.7394 15.4791 12.51 15.4791C12.2805 15.4791 12.0827 15.4027 11.9166 15.25C11.75 15.0833 11.6666 14.8852 11.6666 14.6558C11.6666 14.4263 11.75 14.2286 11.9166 14.0625L14.3125 11.6666L6.66663 11.6666C5.51385 11.6666 4.53107 11.2602 3.71829 10.4475C2.90551 9.63468 2.4994 8.65218 2.49996 7.49996L2.49996 4.99996C2.49996 4.76385 2.57996 4.56579 2.73996 4.40579C2.89996 4.24579 3.09774 4.16607 3.33329 4.16663C3.56885 4.16718 3.76663 4.24718 3.92663 4.40663C4.08663 4.56607 4.16663 4.76385 4.16663 4.99996L4.16663 7.49996C4.16663 8.1944 4.40968 8.78468 4.89579 9.27079C5.3819 9.7569 5.97218 9.99996 6.66663 9.99996L14.3125 9.99996Z" fill="black"/>
</svg>
