<svg width="108" height="38" viewBox="0 0 108 38" fill="none" xmlns="http://www.w3.org/2000/svg">
<rect x="2" y="2" width="104" height="34" rx="17" fill="white"/>
<rect x="2" y="2" width="104" height="34" rx="17" stroke="#FFDF3E" stroke-width="4"/>
<path d="M45.4678 12.7061C47.3867 12.7061 48.7344 13.7607 48.749 15.3281C48.7344 16.6611 47.7236 17.6426 46.2002 17.877V19.0342C47.3647 18.9756 48.5293 18.873 49.6133 18.7119L49.7158 19.7373C46.9619 20.2354 43.8711 20.2793 41.6152 20.2793L41.4688 19.1514C42.4502 19.1587 43.6001 19.1514 44.8086 19.1074V17.8916C43.2412 17.6719 42.1865 16.6831 42.2012 15.3281C42.1865 13.7607 43.5488 12.7061 45.4678 12.7061ZM45.4678 13.7754C44.3105 13.7754 43.4902 14.376 43.5049 15.3281C43.4902 16.251 44.3105 16.8662 45.4678 16.8662C46.6396 16.8662 47.4307 16.251 47.4307 15.3281C47.4307 14.376 46.6396 13.7754 45.4678 13.7754ZM51.8105 12.1348V16.4707H53.6855V17.6426H51.8105V22.1689H50.4189V12.1348H51.8105ZM52.2793 23.8242V24.9668H43.3291V21.29H44.7207V23.8242H52.2793ZM66.459 22.5059V23.6777H54.4473V22.5059H57.7285V20.1914H55.9121V16.0166H63.6172V14.1855H55.8828V13.043H64.9941V17.1445H57.2891V19.0488H65.3018V20.1914H63.3096V22.5059H66.459ZM59.0762 22.5059H61.9473V20.1914H59.0762V22.5059Z" fill="black"/>
</svg>
