<svg width="108" height="38" viewBox="0 0 108 38" fill="none" xmlns="http://www.w3.org/2000/svg">
<rect x="2" y="2" width="104" height="34" rx="17" fill="white"/>
<rect x="2" y="2" width="104" height="34" rx="17" stroke="#59E400" stroke-width="4"/>
<path d="M44.9805 20.001V21.1436H39.6484V25.2451H38.2715V21.1436H32.9688V20.001H44.9805ZM43.6475 17.6719V18.7852H34.5508V12.7061H43.501V13.8193H35.9131V15.167H43.208V16.251H35.9131V17.6719H43.6475ZM57.959 22.5498V23.6924H45.9473V22.5498H49.1699V19.6348H47.002V18.5068H48.9648V14.4199H46.9727V13.2773H56.8604V14.4199H54.8535V18.5068H56.8164V19.6348H54.6631V22.5498H57.959ZM50.3418 18.5068H53.4912V14.4199H50.3418V18.5068ZM50.5615 22.5498H53.2715V19.6348H50.5615V22.5498ZM74.541 18.1992V19.3271H69.2383V20.5869C71.6479 20.7188 73.0762 21.5317 73.0762 22.9014C73.0762 24.3955 71.377 25.2305 68.5498 25.2158C65.6934 25.2305 63.9941 24.3955 63.9941 22.9014C63.9941 21.5317 65.4224 20.7188 67.8613 20.5869V19.3271H62.5732V18.1992H74.541ZM68.5498 21.6416C66.543 21.6416 65.4004 22.0957 65.4004 22.9014C65.4004 23.6924 66.543 24.1611 68.5498 24.1465C70.5273 24.1611 71.6846 23.6924 71.6846 22.9014C71.6846 22.0957 70.5273 21.6416 68.5498 21.6416ZM73.4717 12.7207V13.834H69.4873C69.6851 15.1011 71.5308 16.1777 73.9258 16.4121L73.4277 17.5107C71.1572 17.2471 69.2749 16.2876 68.5645 14.8887C67.832 16.2876 65.957 17.2471 63.6865 17.5107L63.2031 16.4121C65.5615 16.1777 67.4146 15.1011 67.6123 13.834H63.6719V12.7207H73.4717Z" fill="black"/>
</svg>
