<svg width="55" height="32" viewBox="0 0 55 32" fill="none" xmlns="http://www.w3.org/2000/svg">
<rect width="55" height="32" rx="10" fill="#727272"/>
<path d="M19.5684 11.4785C19.5684 13.1484 20.7256 14.7451 22.7324 15.4189L22.0293 16.5029C20.5425 15.9902 19.4512 14.9648 18.8799 13.6758C18.3086 15.0967 17.1733 16.21 15.6279 16.752L14.8809 15.668C16.9316 14.9648 18.1621 13.2803 18.1768 11.4639V11.1123H15.291V9.98438H22.3955V11.1123H19.5684V11.4785ZM25.2959 9.12012V12.4893H27.2002V13.6611H25.2959V17.0303H23.9043V9.12012H25.2959ZM25.2959 17.6748V22.2451H23.9043V18.8027H16.624V17.6748H25.2959ZM32.6055 11.083C32.6055 12.9287 33.792 14.5693 35.7842 15.2139L35.0225 16.2979C33.5796 15.7778 32.5176 14.7671 31.9463 13.4561C31.375 14.9575 30.2324 16.1221 28.6504 16.6934L27.9033 15.5801C29.998 14.8623 31.2139 13.1191 31.2285 11.1416V9.85254H32.6055V11.083ZM38.8896 9.12012V16.8691H37.498V12.9287H34.7295V11.7861H37.498V9.12012H38.8896ZM34.4951 17.2354C37.249 17.2354 38.9336 18.1436 38.9336 19.7402C38.9336 21.3223 37.249 22.2305 34.4951 22.2158C31.7412 22.2305 30.042 21.3223 30.0566 19.7402C30.042 18.1436 31.7412 17.2354 34.4951 17.2354ZM34.4951 18.3193C32.5762 18.3193 31.4336 18.832 31.4336 19.7402C31.4336 20.6191 32.5762 21.1172 34.4951 21.1172C36.4141 21.1172 37.5566 20.6191 37.5566 19.7402C37.5566 18.832 36.4141 18.3193 34.4951 18.3193Z" fill="white"/>
</svg>
