<svg width="258" height="55" viewBox="0 0 258 55" fill="none" xmlns="http://www.w3.org/2000/svg">
<rect x="0.5" y="0.5" width="257" height="54" rx="9.5" fill="white"/>
<rect x="0.5" y="0.5" width="257" height="54" rx="9.5" stroke="black"/>
<path d="M109.293 18.6016V31.4922H107.105V18.6016H109.293ZM109.781 34.1289V35.8867H97.6133V30.2617H99.8008V34.1289H109.781ZM101.168 21.2969C101.168 23.7578 102.613 26.082 105.406 27.0195L104.293 28.7383C102.281 28.0352 100.846 26.6289 100.074 24.832C99.2734 26.7559 97.8184 28.2988 95.7383 29.0508L94.6055 27.332C97.4766 26.3164 98.9219 23.8359 98.9219 21.2969V19.5781H101.168V21.2969ZM126.285 20.2031V21.9023C126.266 24.0898 126.266 26.5508 125.582 30.2422L123.395 30.0078C124.078 26.5703 124.078 24.0605 124.098 21.9414H113.551V20.2031H126.285ZM127.965 32.1758V33.9531H111.871V32.1758H117.809V26.043H119.957V32.1758H127.965ZM142.984 18.582V25.6133H145.699V27.4102H142.984V36.2383H140.836V18.582H142.984ZM139.469 21.2969V23.0352H129.059V21.2969H133.238V18.8359H135.406V21.2969H139.469ZM134.332 24.1875C136.871 24.1875 138.766 25.9062 138.766 28.3477C138.766 30.7891 136.871 32.4883 134.332 32.4883C131.754 32.4883 129.859 30.7891 129.879 28.3477C129.859 25.9062 131.754 24.1875 134.332 24.1875ZM134.332 25.9648C132.945 25.9648 131.949 26.9023 131.949 28.3477C131.949 29.793 132.945 30.7109 134.332 30.6914C135.68 30.7109 136.676 29.793 136.695 28.3477C136.676 26.9023 135.68 25.9648 134.332 25.9648ZM161.188 18.582V36.2383H159V18.582H161.188ZM155.914 20.457C155.914 25.7109 153.883 30.1836 147.691 33.1133L146.559 31.375C151.178 29.1777 153.326 26.1895 153.707 22.1758H147.457V20.457H155.914Z" fill="black"/>
</svg>
