<svg width="16" height="16" viewBox="0 0 16 16" fill="none" xmlns="http://www.w3.org/2000/svg">
<circle cx="8" cy="8" r="8" fill="#59E400"/>
<path d="M6.36423 10.5918L12.0383 4.90704C12.1722 4.77289 12.3284 4.70581 12.507 4.70581C12.6855 4.70581 12.8417 4.77289 12.9756 4.90704C13.1095 5.0412 13.1765 5.20062 13.1765 5.3853C13.1765 5.56999 13.1095 5.72918 12.9756 5.86289L6.83288 12.034C6.69898 12.1681 6.54276 12.2352 6.36423 12.2352C6.18569 12.2352 6.02947 12.1681 5.89557 12.034L3.01668 9.14967C2.88277 9.01552 2.8185 8.85632 2.82386 8.67208C2.82921 8.48784 2.89906 8.32842 3.03341 8.19382C3.16776 8.05922 3.32688 7.99214 3.51077 7.99259C3.69467 7.99304 3.85356 8.06012 3.98746 8.19382L6.36423 10.5918Z" fill="black"/>
</svg>
