<svg width="68" height="68" viewBox="0 0 68 68" fill="none" xmlns="http://www.w3.org/2000/svg">
<circle cx="34" cy="34" r="33.5" fill="white" stroke="#D5D5D5"/>
<path d="M24.2143 28.5C23.7286 28.5 23.3217 28.308 22.9937 27.924C22.6657 27.54 22.5011 27.0653 22.5 26.5C22.4989 25.9347 22.6634 25.46 22.9937 25.076C23.324 24.692 23.7309 24.5 24.2143 24.5H44.7857C45.2714 24.5 45.6788 24.692 46.008 25.076C46.3371 25.46 46.5011 25.9347 46.5 26.5C46.4988 27.0653 46.3343 27.5407 46.0063 27.926C45.6783 28.3113 45.2714 28.5027 44.7857 28.5H24.2143ZM24.2143 36.5C23.7286 36.5 23.3217 36.308 22.9937 35.924C22.6657 35.54 22.5011 35.0653 22.5 34.5C22.4989 33.9347 22.6634 33.46 22.9937 33.076C23.324 32.692 23.7309 32.5 24.2143 32.5H44.7857C45.2714 32.5 45.6788 32.692 46.008 33.076C46.3371 33.46 46.5011 33.9347 46.5 34.5C46.4988 35.0653 46.3343 35.5407 46.0063 35.926C45.6783 36.3113 45.2714 36.5027 44.7857 36.5H24.2143ZM24.2143 44.5C23.7286 44.5 23.3217 44.308 22.9937 43.924C22.6657 43.54 22.5011 43.0653 22.5 42.5C22.4989 41.9346 22.6634 41.46 22.9937 41.076C23.324 40.692 23.7309 40.5 24.2143 40.5H44.7857C45.2714 40.5 45.6788 40.692 46.008 41.076C46.3371 41.46 46.5011 41.9346 46.5 42.5C46.4988 43.0653 46.3343 43.5406 46.0063 43.926C45.6783 44.3113 45.2714 44.5026 44.7857 44.5H24.2143Z" fill="black"/>
</svg>
