<svg width="43" height="43" viewBox="0 0 43 43" fill="none" xmlns="http://www.w3.org/2000/svg">
<path d="M11.2143 15.5C10.7286 15.5 10.3217 15.308 9.99372 14.924C9.66572 14.54 9.50115 14.0653 9.50001 13.5C9.49886 12.9347 9.66343 12.46 9.99372 12.076C10.324 11.692 10.7309 11.5 11.2143 11.5H31.7857C32.2714 11.5 32.6788 11.692 33.008 12.076C33.3371 12.46 33.5011 12.9347 33.5 13.5C33.4988 14.0653 33.3343 14.5407 33.0063 14.926C32.6783 15.3113 32.2714 15.5027 31.7857 15.5H11.2143ZM11.2143 23.5C10.7286 23.5 10.3217 23.308 9.99372 22.924C9.66572 22.54 9.50115 22.0653 9.50001 21.5C9.49886 20.9347 9.66343 20.46 9.99372 20.076C10.324 19.692 10.7309 19.5 11.2143 19.5H31.7857C32.2714 19.5 32.6788 19.692 33.008 20.076C33.3371 20.46 33.5011 20.9347 33.5 21.5C33.4988 22.0653 33.3343 22.5407 33.0063 22.926C32.6783 23.3113 32.2714 23.5027 31.7857 23.5H11.2143ZM11.2143 31.5C10.7286 31.5 10.3217 31.308 9.99372 30.924C9.66572 30.54 9.50115 30.0653 9.50001 29.5C9.49886 28.9346 9.66343 28.46 9.99372 28.076C10.324 27.692 10.7309 27.5 11.2143 27.5H31.7857C32.2714 27.5 32.6788 27.692 33.008 28.076C33.3371 28.46 33.5011 28.9346 33.5 29.5C33.4988 30.0653 33.3343 30.5406 33.0063 30.926C32.6783 31.3113 32.2714 31.5026 31.7857 31.5H11.2143Z" fill="black"/>
</svg>
