<svg width="17" height="17" viewBox="0 0 17 17" fill="none" xmlns="http://www.w3.org/2000/svg">
<path fill-rule="evenodd" clip-rule="evenodd" d="M8.62173 10.6769L13.7576 15.8127C14.0301 16.0852 14.3997 16.2383 14.7851 16.2383C15.1705 16.2383 15.5401 16.0852 15.8127 15.8127C16.0852 15.5402 16.2383 15.1705 16.2383 14.7851C16.2383 14.3997 16.0852 14.0301 15.8127 13.7576L10.6749 8.62175L15.8117 3.48592C15.9466 3.35098 16.0536 3.19079 16.1265 3.01451C16.1995 2.83822 16.237 2.64929 16.237 2.4585C16.2369 2.26771 16.1993 2.0788 16.1263 1.90255C16.0532 1.7263 15.9462 1.56617 15.8112 1.43129C15.6763 1.29642 15.5161 1.18944 15.3398 1.11647C15.1635 1.0435 14.9746 1.00596 14.7838 1.00601C14.593 1.00605 14.4041 1.04368 14.2279 1.11673C14.0516 1.18978 13.8915 1.29684 13.7566 1.43178L8.62173 6.56761L3.4859 1.43178C3.35196 1.29297 3.19171 1.18222 3.01451 1.106C2.83731 1.02978 2.6467 0.98962 2.45381 0.987854C2.26092 0.986087 2.06961 1.02275 1.89105 1.09571C1.71248 1.16867 1.55023 1.27646 1.41377 1.4128C1.2773 1.54913 1.16936 1.71128 1.09623 1.88978C1.0231 2.06828 0.986257 2.25955 0.987842 2.45244C0.989427 2.64533 1.02941 2.83598 1.10546 3.01325C1.18151 3.19052 1.29211 3.35087 1.43079 3.48495L6.56856 8.62175L1.43176 13.7586C1.29307 13.8926 1.18248 14.053 1.10643 14.2302C1.03038 14.4075 0.990395 14.5982 0.98881 14.7911C0.987226 14.9839 1.02407 15.1752 1.0972 15.3537C1.17033 15.5322 1.27827 15.6944 1.41474 15.8307C1.5512 15.967 1.71345 16.0748 1.89201 16.1478C2.07058 16.2207 2.26189 16.2574 2.45478 16.2556C2.64767 16.2539 2.83827 16.2137 3.01548 16.1375C3.19268 16.0613 3.35292 15.9505 3.48687 15.8117L8.62173 10.6769Z" fill="black"/>
</svg>
