<svg width="556" height="1071" viewBox="0 0 556 1071" fill="none" xmlns="http://www.w3.org/2000/svg">
<g filter="url(#filter0_d_219_482)">
<rect x="50" y="46.5" width="486" height="82" rx="41" fill="white" shape-rendering="crispEdges"/>
<path d="M72.25 91.25V75.5H70V73.25H81.25V75.5H83.5V77.75H85.75V89H83.5V91.25H81.25V93.5H70V91.25H72.25ZM76.75 91.25H79V89H81.25V86.75V84.5V82.25V80V77.75H79V75.5H76.75V77.75V80V82.25V84.5V86.75V91.25ZM88 73.25H92.5V75.5H94.75V77.75H97V80H99.25V73.25H103.75V93.5H99.25V86.75H97V84.5H94.75V82.25H92.5V93.5H88V73.25ZM106 86.75H108.25V84.5H110.5V82.25H112.75V80H115V77.75H117.25V75.5H110.5V77.75H108.25V80H106V73.25H121.75V77.75H119.5V80H117.25V82.25H115V84.5H112.75V86.75H110.5V91.25H117.25V89H119.5V86.75H121.75V93.5H106V86.75ZM128.5 91.25H126.25V89H124V77.75H126.25V75.5H128.5V73.25H137.5V75.5H139.75V80H137.5V77.75H135.25V75.5H130.75V77.75H128.5V89H130.75V91.25H135.25V93.5H128.5V91.25ZM137.5 91.25H135.25V86.75H130.75V84.5H139.75V93.5H137.5V91.25Z" fill="black"/>
<path d="M70.75 105.75V100.5H70V99.75H73.75V100.5H74.5V101.25H75.25V105H74.5V105.75H73.75V106.5H70V105.75H70.75ZM72.25 105.75H73V105H73.75V104.25V103.5V102.75V102V101.25H73V100.5H72.25V101.25V102V102.75V103.5V104.25V105.75ZM76.75 105.75H76V102.75H76.75V102H80.5V102.75H81.25V105.75H80.5V106.5H76.75V105.75ZM77.5 105.75H79.75V105V104.25V103.5V102.75H77.5V103.5V104.25V105.75ZM82.75 102.75H82V102H83.5V102.75H84.25V106.5H82.75V102.75ZM85.75 102.75H84.25V102H86.5V102.75H87.25V106.5H85.75V102.75ZM93.25 102.75H92.5V107.25H91.75V108H88.75V107.25H88V106.5H89.5V107.25H91V105.75H88.75V105H88V102.75H88.75V102H91V102.75H89.5V105H91V102.75H91.75V102H93.25V102.75ZM94 99.75H95.5V100.5H96.25V101.25H97V102H97.75V99.75H99.25V106.5H97.75V104.25H97V103.5H96.25V102.75H95.5V106.5H94V99.75ZM105.25 106.5H103.75V105.75H103V104.25H101.5V105.75H103V106.5H100.75V105.75H100V104.25H100.75V103.5H103V102.75H100.75V102H103.75V102.75H104.5V105.75H105.25V106.5ZM111.25 105.75H110.5V106.5H106.75V105.75H106V102.75H106.75V102H110.5V102.75H111.25V104.25H107.5V105.75H109.75V105H111.25V105.75ZM107.5 103.5H109.75V102.75H107.5V103.5ZM112 104.25H112.75V103.5H113.5V102.75H114.25V102H115V101.25H115.75V100.5H113.5V101.25H112.75V102H112V99.75H117.25V101.25H116.5V102H115.75V102.75H115V103.5H114.25V104.25H113.5V105.75H115.75V105H116.5V104.25H117.25V106.5H112V104.25ZM118.75 105.75H118V102.75H118.75V102H122.5V102.75H123.25V105.75H122.5V106.5H118.75V105.75ZM119.5 105.75H121.75V105V104.25V103.5V102.75H119.5V103.5V104.25V105.75ZM125.5 105.75H124.75V105H124V101.25H124.75V100.5H125.5V99.75H128.5V100.5H129.25V102H128.5V101.25H127.75V100.5H126.25V101.25H125.5V105H126.25V105.75H127.75V106.5H125.5V105.75ZM128.5 105.75H127.75V104.25H126.25V103.5H129.25V106.5H128.5V105.75ZM135.25 106.5H133.75V105.75H133V104.25H131.5V105.75H133V106.5H130.75V105.75H130V104.25H130.75V103.5H133V102.75H130.75V102H133.75V102.75H134.5V105.75H135.25V106.5ZM141.25 102.75H140.5V103.5H139.75V104.25H140.5V105H141.25V106.5H139.75V105H139V104.25H138.25V106.5H136V105.75H136.75V100.5H136V99.75H138.25V103.5H139V102.75H139.75V102H141.25V102.75Z" fill="black"/>
<path d="M482 79.7857C482 77.4188 483.903 75.5 486.25 75.5H511.75C514.097 75.5 516 77.4188 516 79.7857V95.2143C516 97.5812 514.097 99.5 511.75 99.5H486.25C483.903 99.5 482 97.5812 482 95.2143V79.7857Z" fill="black"/>
<path d="M492.2 76.3571L492.2 99.5M486.25 99.5H511.75C514.097 99.5 516 97.5812 516 95.2143V79.7857C516 77.4188 514.097 75.5 511.75 75.5H486.25C483.903 75.5 482 77.4188 482 79.7857V95.2143C482 97.5812 483.903 99.5 486.25 99.5Z" stroke="white" stroke-width="2"/>
</g>
<defs>
<filter id="filter0_d_219_482" x="0" y="0.5" width="586" height="182" filterUnits="userSpaceOnUse" color-interpolation-filters="sRGB">
<feFlood flood-opacity="0" result="BackgroundImageFix"/>
<feColorMatrix in="SourceAlpha" type="matrix" values="0 0 0 0 0 0 0 0 0 0 0 0 0 0 0 0 0 0 127 0" result="hardAlpha"/>
<feOffset dy="4"/>
<feGaussianBlur stdDeviation="25"/>
<feComposite in2="hardAlpha" operator="out"/>
<feColorMatrix type="matrix" values="0 0 0 0 0 0 0 0 0 0 0 0 0 0 0 0 0 0 0.25 0"/>
<feBlend mode="normal" in2="BackgroundImageFix" result="effect1_dropShadow_219_482"/>
<feBlend mode="normal" in="SourceGraphic" in2="effect1_dropShadow_219_482" result="shape"/>
</filter>
</defs>
</svg>
