<svg width="24" height="24" viewBox="0 0 24 24" fill="none" xmlns="http://www.w3.org/2000/svg">
<path d="M2.09445 11.0865C2.08246 10.9484 2.0993 10.8094 2.14391 10.6782C2.18851 10.5469 2.25991 10.4264 2.35356 10.3243C2.44721 10.2221 2.56108 10.1405 2.68793 10.0847C2.81478 10.0289 2.95185 10 3.09045 10H4.99995C5.26516 10 5.51952 10.1054 5.70705 10.2929C5.89459 10.4804 5.99995 10.7348 5.99995 11V20.5C5.99995 20.7652 5.89459 21.0196 5.70705 21.2071C5.51952 21.3946 5.26516 21.5 4.99995 21.5H3.91695C3.66666 21.5001 3.42545 21.4063 3.24096 21.2371C3.05646 21.068 2.9421 20.8358 2.92045 20.5865L2.09445 11.0865ZM8.99995 10.6875C8.99995 10.2695 9.25995 9.8955 9.63745 9.7175C10.4619 9.3285 11.8664 8.547 12.4999 7.4905C13.3164 6.1285 13.4704 3.668 13.4954 3.1045C13.4989 3.0255 13.4969 2.9465 13.5074 2.8685C13.6429 1.892 15.5274 3.0325 16.2499 4.2385C16.6424 4.8925 16.6924 5.752 16.6514 6.4235C16.6069 7.1415 16.3964 7.835 16.1899 8.524L15.7499 9.9925H21.1784C21.3329 9.99249 21.4854 10.0283 21.6237 10.0971C21.762 10.1658 21.8826 10.2658 21.9758 10.3889C22.0691 10.5121 22.1325 10.6553 22.1612 10.8071C22.1898 10.9589 22.1829 11.1153 22.1409 11.264L19.4559 20.772C19.3967 20.9817 19.2705 21.1663 19.0967 21.2977C18.9229 21.4291 18.7109 21.5001 18.4929 21.5H9.99995C9.73473 21.5 9.48038 21.3946 9.29284 21.2071C9.1053 21.0196 8.99995 20.7652 8.99995 20.5V10.6875Z" fill="white" stroke="white" stroke-width="2" stroke-linecap="round" stroke-linejoin="round"/>
</svg>
