<svg width="52" height="52" viewBox="0 0 52 52" fill="none" xmlns="http://www.w3.org/2000/svg">
<path d="M34.6667 10.8334H47.6667M41.1667 4.33337V17.3334M45.5 24.9167V41.1667C45.5 42.316 45.0435 43.4182 44.2308 44.2308C43.4181 45.0435 42.3159 45.5 41.1667 45.5H10.8333C9.68406 45.5 8.58186 45.0435 7.7692 44.2308C6.95655 43.4182 6.5 42.316 6.5 41.1667V10.8334C6.5 9.6841 6.95655 8.5819 7.7692 7.76924C8.58186 6.95659 9.68406 6.50004 10.8333 6.50004H27.0833" stroke="black" stroke-width="3" stroke-linecap="round" stroke-linejoin="round"/>
<path d="M45.5 32.5L38.8137 25.8137C38.001 25.0013 36.899 24.5449 35.75 24.5449C34.601 24.5449 33.499 25.0013 32.6863 25.8137L13 45.5" stroke="black" stroke-width="3" stroke-linecap="round" stroke-linejoin="round"/>
<path d="M19.5 23.8334C21.8932 23.8334 23.8333 21.8933 23.8333 19.5001C23.8333 17.1068 21.8932 15.1667 19.5 15.1667C17.1067 15.1667 15.1666 17.1068 15.1666 19.5001C15.1666 21.8933 17.1067 23.8334 19.5 23.8334Z" stroke="black" stroke-width="3" stroke-linecap="round" stroke-linejoin="round"/>
</svg>
