<svg width="80" height="40" viewBox="0 0 80 40" fill="none" xmlns="http://www.w3.org/2000/svg">
<rect x="0.5" y="0.5" width="79" height="39" rx="9.5" fill="#EDEDED"/>
<rect x="0.5" y="0.5" width="79" height="39" rx="9.5" stroke="#D5D5D5"/>
<path d="M31.875 24.3125V25.75H18.9688V24.3125H24.5312V22.0156H20.5V17.3906H28.625V15.6406H20.4688V14.2344H30.3438V18.7656H22.2344V20.5938H30.6719V22.0156H26.25V24.3125H31.875ZM44.4712 14.6406V16.2344C44.4712 18.125 44.4712 20.0781 43.9556 23.0469L42.19 22.8906C42.7369 20.1094 42.7369 18.0625 42.7369 16.2344V16.0469H34.5962V14.6406H44.4712ZM46.1119 24.0312V25.4531H33.2369V24.0312H46.1119ZM59.2706 13.2812V23.4844H57.5206V13.2812H59.2706ZM59.6612 25.7031V27.1094H49.9269V22.4531H51.6769V25.7031H59.6612ZM51.5675 14.2031C53.7081 14.2031 55.3644 15.6875 55.3644 17.7344C55.3644 19.8281 53.7081 21.2812 51.5675 21.2812C49.4112 21.2812 47.755 19.8281 47.755 17.7344C47.755 15.6875 49.4112 14.2031 51.5675 14.2031ZM51.5675 15.7188C50.3644 15.7188 49.4425 16.5156 49.4581 17.7344C49.4425 18.9844 50.3644 19.7656 51.5675 19.7656C52.7394 19.7656 53.6612 18.9844 53.6612 17.7344C53.6612 16.5156 52.7394 15.7188 51.5675 15.7188Z" fill="black"/>
</svg>
