<svg width="63" height="31" viewBox="0 0 63 31" fill="none" xmlns="http://www.w3.org/2000/svg">
<rect x="0.5" y="0.5" width="62" height="30" rx="4.5" fill="white"/>
<rect x="0.5" y="0.5" width="62" height="30" rx="4.5" stroke="#D5D5D5"/>
<rect width="61" height="25" transform="translate(1 3)" fill="white"/>
<path d="M21.1309 17.9795V18.6885H12.3867V17.9795H16.3184V16.1748H13.4824V13.2314H19.1973V11.7275H13.4609V11.0293H20.0244V13.9189H14.3203V15.4766H20.25V16.1748H17.1455V17.9795H21.1309ZM29.4238 11.3408V12.2969C29.4238 13.5 29.4238 14.8643 29.0693 16.9375L28.21 16.8516C28.5967 14.8965 28.5967 13.4678 28.5967 12.2969V12.0391H22.8389V11.3408H29.4238ZM30.5947 17.7646V18.4629H21.8936V17.7646H30.5947ZM33.957 11.0615C35.3643 11.0723 36.3633 12.3613 36.374 14.3916C36.3633 16.4219 35.3643 17.7109 33.957 17.7109C32.5391 17.7109 31.5508 16.4219 31.5508 14.3916C31.5508 12.3613 32.5391 11.0723 33.957 11.0615ZM33.957 11.8135C33.0117 11.8242 32.3457 12.834 32.3457 14.3916C32.3457 15.9492 33.0117 16.959 33.957 16.959C34.9131 16.959 35.5576 15.9492 35.5576 14.3916C35.5576 12.834 34.9131 11.8242 33.957 11.8135ZM38.791 10.3203V14.1338H40.3916V14.8643H38.791V19.8701H37.9531V10.3203H38.791ZM49.6406 14.6816V15.4121H45.6553V16.4541H44.8281V15.4121H40.9072V14.6816H49.6406ZM45.666 17.1953C45.666 18.248 47.2129 19.0107 48.9424 19.1826L48.6738 19.8271C47.1646 19.666 45.8057 19.0859 45.2363 18.1621C44.667 19.0752 43.3188 19.666 41.8203 19.8271L41.541 19.1826C43.249 19.0107 44.8066 18.2373 44.8066 17.1953V16.8838H45.666V17.1953ZM45.2578 10.4814C47.3525 10.4814 48.6309 11.1045 48.6309 12.2217C48.6309 13.3281 47.3525 13.9727 45.2578 13.9619C43.1631 13.9727 41.874 13.3281 41.874 12.2217C41.874 11.1045 43.1631 10.4814 45.2578 10.4814ZM45.2578 11.126C43.7002 11.1152 42.7334 11.5342 42.7441 12.2217C42.7334 12.8984 43.7002 13.3066 45.2578 13.3066C46.8047 13.3066 47.7715 12.8984 47.7715 12.2217C47.7715 11.5342 46.8047 11.1152 45.2578 11.126Z" fill="black"/>
</svg>
