<svg width="36" height="26" viewBox="0 0 36 26" fill="none" xmlns="http://www.w3.org/2000/svg">
<path d="M1 5.28571C1 2.91878 2.90279 1 5.25 1H30.75C33.0972 1 35 2.91878 35 5.28571V20.7143C35 23.0812 33.0972 25 30.75 25H5.25C2.90279 25 1 23.0812 1 20.7143V5.28571Z" fill="black"/>
<path d="M11.2 1.85714L11.2 25M5.25 25H30.75C33.0972 25 35 23.0812 35 20.7143V5.28571C35 2.91878 33.0972 1 30.75 1H5.25C2.90279 1 1 2.91878 1 5.28571V20.7143C1 23.0812 2.90279 25 5.25 25Z" stroke="white" stroke-width="2"/>
</svg>
