<svg width="56" height="25" viewBox="0 0 56 25" fill="none" xmlns="http://www.w3.org/2000/svg">
<path d="M22.7093 2.29139C22.217 1.79921 21.5494 1.52271 20.8533 1.52271C20.1572 1.52271 19.4896 1.79921 18.9973 2.29139L17.8403 3.44839L21.5523 7.16039L22.7093 6.00339C23.2015 5.51112 23.478 4.84351 23.478 4.14739C23.478 3.45128 23.2015 2.78366 22.7093 2.29139ZM20.4913 8.2214L16.7793 4.50939L8.37928 12.9094C7.76213 13.5262 7.30846 14.2872 7.05928 15.1234L6.25928 17.8084C6.22066 17.938 6.21778 18.0756 6.25094 18.2066C6.28411 18.3377 6.35209 18.4574 6.4477 18.553C6.5433 18.6486 6.66297 18.7166 6.79404 18.7497C6.92511 18.7829 7.06271 18.78 7.19228 18.7414L9.87728 17.9414C10.7135 17.6922 11.4744 17.2385 12.0913 16.6214L20.4913 8.2214Z" fill="#999999"/>
<path d="M6.22852 5.27246C5.43287 5.27246 4.6698 5.58853 4.1072 6.15114C3.54459 6.71375 3.22852 7.47681 3.22852 8.27246V18.7725C3.22852 19.5681 3.54459 20.3312 4.1072 20.8938C4.6698 21.4564 5.43287 21.7725 6.22852 21.7725H16.7285C17.5242 21.7725 18.2872 21.4564 18.8498 20.8938C19.4124 20.3312 19.7285 19.5681 19.7285 18.7725V13.5225C19.7285 13.3235 19.6495 13.1328 19.5088 12.9921C19.3682 12.8515 19.1774 12.7725 18.9785 12.7725C18.7796 12.7725 18.5888 12.8515 18.4482 12.9921C18.3075 13.1328 18.2285 13.3235 18.2285 13.5225V18.7725C18.2285 19.1703 18.0705 19.5518 17.7892 19.8331C17.5079 20.1144 17.1263 20.2725 16.7285 20.2725H6.22852C5.83069 20.2725 5.44916 20.1144 5.16786 19.8331C4.88655 19.5518 4.72852 19.1703 4.72852 18.7725V8.27246C4.72852 7.87464 4.88655 7.49311 5.16786 7.2118C5.44916 6.9305 5.83069 6.77246 6.22852 6.77246H11.4785C11.6774 6.77246 11.8682 6.69344 12.0088 6.55279C12.1495 6.41214 12.2285 6.22137 12.2285 6.02246C12.2285 5.82355 12.1495 5.63278 12.0088 5.49213C11.8682 5.35148 11.6774 5.27246 11.4785 5.27246H6.22852Z" fill="#999999"/>
<path d="M37.0391 6.90234C37.0391 8.7334 39.4414 10.3301 41.7852 10.6523L41.3164 11.5898C39.2949 11.2529 37.2954 10.1323 36.4531 8.52832C35.6182 10.1396 33.6113 11.2529 31.5898 11.5898L31.1211 10.6523C33.4648 10.3301 35.8525 8.7627 35.8525 6.90234V6.15527H37.0391V6.90234ZM42.3711 13.0254V13.9922H36.9805V18.709H35.8525V13.9922H30.5059V13.0254H42.3711ZM54.2656 5.68652V13.4502H53.1084V10.0371H50.4863V9.08496H53.1084V5.68652H54.2656ZM49.9443 13.8604C52.6543 13.8604 54.3096 14.7393 54.3096 16.2773C54.3096 17.8154 52.6543 18.6943 49.9443 18.709C47.2344 18.6943 45.5791 17.8154 45.5791 16.2773C45.5791 14.7393 47.2344 13.8604 49.9443 13.8604ZM49.9443 14.7539C47.9521 14.7539 46.707 15.3252 46.7217 16.2773C46.707 17.2148 47.9521 17.7861 49.9443 17.7861C51.9365 17.7861 53.167 17.2148 53.167 16.2773C53.167 15.3252 51.9365 14.7539 49.9443 14.7539ZM47.9961 8.07422C47.9961 9.77344 49.2998 11.3848 51.2041 12.0439L50.6035 12.9668C49.1387 12.4395 48.0034 11.3481 47.4541 9.99316C46.8828 11.5239 45.6743 12.7471 44.1289 13.333L43.5283 12.4102C45.4619 11.707 46.8389 9.94922 46.8389 8.08887V7.60547H43.8945V6.63867H50.9111V7.60547H47.9961V8.07422Z" fill="#999999"/>
</svg>
