<svg width="414" height="56" viewBox="0 0 414 56" fill="none" xmlns="http://www.w3.org/2000/svg">
<rect x="0.5" y="1" width="413" height="54" rx="9.5" fill="white"/>
<rect x="0.5" y="1" width="413" height="54" rx="9.5" stroke="#999999"/>
<path d="M157.934 20.3516V21.875C157.934 23.5254 157.934 25.3125 157.445 27.8125H160.023V29.082H152.855V36.6211H151.312V29.082H144.203V27.8125H155.883C156.41 25.3125 156.41 23.4863 156.41 21.875V21.6211H146.195V20.3516H157.934ZM175.297 19.9805V21.0938C175.297 22.2754 175.297 23.7598 174.906 25.7227H177.387V26.9531H161.488V25.7227H173.363C173.754 23.7891 173.773 22.3633 173.773 21.2305H163.5V19.9805H175.297ZM175.355 28.7109V33.0859H164.945V35.1367H175.805V36.3867H163.402V31.875H173.832V29.9414H163.383V28.7109H175.355ZM194.672 33.1445V34.4336H178.773V33.1445H185.922V29.8633H180.766V24.5117H191.156V21.7773H180.727V20.5078H192.66V25.7617H182.289V28.5938H193.07V29.8633H187.426V33.1445H194.672ZM207.25 23.8867C207.23 27.0508 209.398 30.2539 211.957 31.4062L211.02 32.6172C209.047 31.6504 207.338 29.6094 206.508 27.1289C205.697 29.7559 203.988 31.9434 201.957 32.9688L200.98 31.6797C203.559 30.4883 205.707 27.1875 205.727 23.8867V20.7227H207.25V23.8867ZM215.395 19.2188V36.6211H213.852V19.2188H215.395ZM224.242 22.4414C224.242 24.7461 225.941 26.8555 228.52 27.7539L227.738 28.9453C225.756 28.2422 224.242 26.8164 223.5 25.0195C222.758 26.9922 221.166 28.5254 219.125 29.2773L218.305 28.0859C220.902 27.168 222.719 24.9219 222.738 22.4414V21.6992H218.773V20.4492H228.148V21.6992H224.242V22.4414ZM231.938 19.2188V23.8086H234.555V25.1172H231.938V29.6875H230.414V19.2188H231.938ZM231.938 30.6055V36.582H230.414V31.8555H220.57V30.6055H231.938ZM249.086 19.2188V26.3867H251.996V27.6562H249.086V36.582H247.562V19.2188H249.086ZM245.883 22.0117V23.2812H235.551V22.0117H240.023V19.4336H241.547V22.0117H245.883ZM240.805 24.7266C243.266 24.7266 245.043 26.3672 245.062 28.7109C245.043 31.0547 243.266 32.6953 240.805 32.6953C238.324 32.6953 236.527 31.0547 236.547 28.7109C236.527 26.3672 238.324 24.7266 240.805 24.7266ZM240.805 26.0156C239.184 26.0156 237.992 27.1484 238.012 28.7109C237.992 30.293 239.184 31.4062 240.805 31.3867C242.406 31.4062 243.578 30.293 243.598 28.7109C243.578 27.1484 242.406 26.0156 240.805 26.0156ZM267.289 19.2188V36.582H265.746V19.2188H267.289ZM262.152 21.1133C262.133 26.1133 259.809 30.5273 253.988 33.3203L253.148 32.0703C257.846 29.8438 260.238 26.5137 260.59 22.3633H253.949V21.1133H262.152Z" fill="black"/>
<path d="M120.333 27.9736C120.333 27.2194 120.271 26.6694 120.137 26.0986H111.353V29.5011H116.508C116.405 30.3461 115.844 31.6194 114.597 32.4753L114.579 32.5886L117.356 34.6969L117.547 34.7153C119.316 33.1169 120.333 30.7636 120.333 27.9736Z" fill="#4285F4"/>
<path d="M111.354 36.9361C113.879 36.9361 115.998 36.1211 117.547 34.7153L114.597 32.4753C113.807 33.0153 112.747 33.3919 111.354 33.3919C110.18 33.3921 109.036 33.0247 108.082 32.3414C107.127 31.6581 106.411 30.6932 106.033 29.5819L105.922 29.5911L103.035 31.7811L102.998 31.8844C104.536 34.8786 107.696 36.9361 111.354 36.9361Z" fill="#34A853"/>
<path d="M106.033 29.5819C105.828 28.9995 105.722 28.3869 105.719 27.7695C105.719 27.1378 105.834 26.5269 106.02 25.9569L106.015 25.8345L103.092 23.6094L102.996 23.6544C102.342 24.9278 102.001 26.3382 102 27.7695C102 29.2461 102.363 30.6419 102.998 31.8844L106.033 29.5819Z" fill="#FBBC05"/>
<path d="M111.354 22.1469C113.111 22.1469 114.295 22.8903 114.971 23.5119L117.61 20.9861C115.989 19.5094 113.879 18.6028 111.354 18.6028C107.695 18.6028 104.536 20.6603 102.998 23.6544L106.023 25.9569C106.404 24.8458 107.123 23.8815 108.078 23.1985C109.034 22.5155 110.179 22.1479 111.354 22.1469Z" fill="#EB4335"/>
</svg>
