<svg width="168" height="168" viewBox="0 0 168 168" fill="none" xmlns="http://www.w3.org/2000/svg">
<g filter="url(#filter0_d_222_1022)">
<circle cx="69" cy="71" r="34" fill="white"/>
</g>
<path d="M59.2143 65.5C58.7286 65.5 58.3217 65.308 57.9937 64.924C57.6657 64.54 57.5011 64.0653 57.5 63.5C57.4989 62.9347 57.6634 62.46 57.9937 62.076C58.324 61.692 58.7309 61.5 59.2143 61.5H79.7857C80.2714 61.5 80.6788 61.692 81.008 62.076C81.3371 62.46 81.5011 62.9347 81.5 63.5C81.4988 64.0653 81.3343 64.5407 81.0063 64.926C80.6783 65.3113 80.2714 65.5027 79.7857 65.5H59.2143ZM59.2143 73.5C58.7286 73.5 58.3217 73.308 57.9937 72.924C57.6657 72.54 57.5011 72.0653 57.5 71.5C57.4989 70.9347 57.6634 70.46 57.9937 70.076C58.324 69.692 58.7309 69.5 59.2143 69.5H79.7857C80.2714 69.5 80.6788 69.692 81.008 70.076C81.3371 70.46 81.5011 70.9347 81.5 71.5C81.4988 72.0653 81.3343 72.5407 81.0063 72.926C80.6783 73.3113 80.2714 73.5027 79.7857 73.5H59.2143ZM59.2143 81.5C58.7286 81.5 58.3217 81.308 57.9937 80.924C57.6657 80.54 57.5011 80.0653 57.5 79.5C57.4989 78.9346 57.6634 78.46 57.9937 78.076C58.324 77.692 58.7309 77.5 59.2143 77.5H79.7857C80.2714 77.5 80.6788 77.692 81.008 78.076C81.3371 78.46 81.5011 78.9346 81.5 79.5C81.4988 80.0653 81.3343 80.5406 81.0063 80.926C80.6783 81.3113 80.2714 81.5026 79.7857 81.5H59.2143Z" fill="black"/>
<defs>
<filter id="filter0_d_222_1022" x="0" y="0" width="168" height="168" filterUnits="userSpaceOnUse" color-interpolation-filters="sRGB">
<feFlood flood-opacity="0" result="BackgroundImageFix"/>
<feColorMatrix in="SourceAlpha" type="matrix" values="0 0 0 0 0 0 0 0 0 0 0 0 0 0 0 0 0 0 127 0" result="hardAlpha"/>
<feOffset dx="15" dy="13"/>
<feGaussianBlur stdDeviation="25"/>
<feComposite in2="hardAlpha" operator="out"/>
<feColorMatrix type="matrix" values="0 0 0 0 0.394343 0 0 0 0 0.394343 0 0 0 0 0.394343 0 0 0 0.37 0"/>
<feBlend mode="normal" in2="BackgroundImageFix" result="effect1_dropShadow_222_1022"/>
<feBlend mode="normal" in="SourceGraphic" in2="effect1_dropShadow_222_1022" result="shape"/>
</filter>
</defs>
</svg>
