<svg width="414" height="56" viewBox="0 0 414 56" fill="none" xmlns="http://www.w3.org/2000/svg">
<rect x="0.5" y="1" width="413" height="54" rx="9.5" fill="white"/>
<rect x="0.5" y="1" width="413" height="54" rx="9.5" stroke="#999999"/>
<path d="M138.086 21.1133V30.8398C139.961 30.8203 141.738 30.7129 143.828 30.2734L144.043 31.6016C141.719 32.0898 139.785 32.1875 137.656 32.1875H136.562V21.1133H138.086ZM150.566 19.2188V36.582H149.102V19.2188H150.566ZM146.855 19.6484V35.7031H145.391V26.3477H141.426V25.0781H145.391V19.6484H146.855ZM167.305 19.2188V36.6211H165.762V19.2188H167.305ZM158.066 20.5664C160.645 20.5859 162.5 22.9297 162.5 26.6211C162.5 30.3125 160.645 32.6562 158.066 32.6562C155.469 32.6562 153.633 30.3125 153.633 26.6211C153.633 22.9297 155.469 20.5859 158.066 20.5664ZM158.066 21.9336C156.328 21.9531 155.117 23.7891 155.117 26.6211C155.117 29.4531 156.328 31.2891 158.066 31.2891C159.805 31.2891 161.016 29.4531 161.016 26.6211C161.016 23.7891 159.805 21.9531 158.066 21.9336ZM184.668 19.2188V36.6211H183.145V26.9531H178.984V32.2266H170.977V20.5859H172.52V25.1172H177.48V20.5859H178.984V25.6836H183.145V19.2188H184.668ZM172.52 30.957H177.48V26.3477H172.52V30.957ZM203.457 33.1445V34.4336H187.559V33.1445H194.707V29.8633H189.551V24.5117H199.941V21.7773H189.512V20.5078H201.445V25.7617H191.074V28.5938H201.855V29.8633H196.211V33.1445H203.457ZM216.035 23.8867C216.016 27.0508 218.184 30.2539 220.742 31.4062L219.805 32.6172C217.832 31.6504 216.123 29.6094 215.293 27.1289C214.482 29.7559 212.773 31.9434 210.742 32.9688L209.766 31.6797C212.344 30.4883 214.492 27.1875 214.512 23.8867V20.7227H216.035V23.8867ZM224.18 19.2188V36.6211H222.637V19.2188H224.18ZM233.027 22.4414C233.027 24.7461 234.727 26.8555 237.305 27.7539L236.523 28.9453C234.541 28.2422 233.027 26.8164 232.285 25.0195C231.543 26.9922 229.951 28.5254 227.91 29.2773L227.09 28.0859C229.688 27.168 231.504 24.9219 231.523 22.4414V21.6992H227.559V20.4492H236.934V21.6992H233.027V22.4414ZM240.723 19.2188V23.8086H243.34V25.1172H240.723V29.6875H239.199V19.2188H240.723ZM240.723 30.6055V36.582H239.199V31.8555H229.355V30.6055H240.723ZM257.871 19.2188V26.3867H260.781V27.6562H257.871V36.582H256.348V19.2188H257.871ZM254.668 22.0117V23.2812H244.336V22.0117H248.809V19.4336H250.332V22.0117H254.668ZM249.59 24.7266C252.051 24.7266 253.828 26.3672 253.848 28.7109C253.828 31.0547 252.051 32.6953 249.59 32.6953C247.109 32.6953 245.312 31.0547 245.332 28.7109C245.312 26.3672 247.109 24.7266 249.59 24.7266ZM249.59 26.0156C247.969 26.0156 246.777 27.1484 246.797 28.7109C246.777 30.293 247.969 31.4062 249.59 31.3867C251.191 31.4062 252.363 30.293 252.383 28.7109C252.363 27.1484 251.191 26.0156 249.59 26.0156ZM276.074 19.2188V36.582H274.531V19.2188H276.074ZM270.938 21.1133C270.918 26.1133 268.594 30.5273 262.773 33.3203L261.934 32.0703C266.631 29.8438 269.023 26.5137 269.375 22.3633H262.734V21.1133H270.938Z" fill="black"/>
<path d="M117.102 19.5222V36.9768H113.148L106.841 27.8063H106.739V36.9768H102V19.5222H106.023L112.227 28.6586H112.364V19.5222H117.102Z" fill="#03C75A"/>
</svg>
