<svg width="118" height="118" viewBox="0 0 118 118" fill="none" xmlns="http://www.w3.org/2000/svg">
<rect x="1" y="1" width="115.979" height="115.979" rx="57.9893" fill="#727272"/>
<rect x="1" y="1" width="115.979" height="115.979" rx="57.9893" stroke="#999999" stroke-width="2"/>
<path d="M67.6667 43.8228H80.6667M74.1667 37.3228V50.3228M78.5 57.9061V74.1561C78.5 75.3054 78.0435 76.4076 77.2308 77.2202C76.4181 78.0329 75.3159 78.4894 74.1667 78.4894H43.8333C42.6841 78.4894 41.5819 78.0329 40.7692 77.2202C39.9565 76.4076 39.5 75.3054 39.5 74.1561V43.8228C39.5 42.6735 39.9565 41.5713 40.7692 40.7586C41.5819 39.946 42.6841 39.4894 43.8333 39.4894H60.0833" stroke="#EDEDED" stroke-width="3" stroke-linecap="round" stroke-linejoin="round"/>
<path d="M78.5 65.4893L71.8137 58.8029C71.001 57.9905 69.899 57.5342 68.75 57.5342C67.601 57.5342 66.499 57.9905 65.6863 58.8029L46 78.4893" stroke="#EDEDED" stroke-width="3" stroke-linecap="round" stroke-linejoin="round"/>
<path d="M52.4998 56.8229C54.8931 56.8229 56.8332 54.8828 56.8332 52.4896C56.8332 50.0963 54.8931 48.1562 52.4998 48.1562C50.1066 48.1562 48.1665 50.0963 48.1665 52.4896C48.1665 54.8828 50.1066 56.8229 52.4998 56.8229Z" stroke="#EDEDED" stroke-width="3" stroke-linecap="round" stroke-linejoin="round"/>
</svg>
