<svg width="156" height="47" viewBox="0 0 156 47" fill="none" xmlns="http://www.w3.org/2000/svg">
<rect x="3" y="3" width="150" height="41" rx="20.5" fill="white"/>
<rect x="3" y="3" width="150" height="41" rx="20.5" stroke="#FFDF3E" stroke-width="6"/>
<path d="M49.1578 25.5938C52.2203 25.6094 54.1578 26.5781 54.1734 28.25C54.1578 29.8906 52.2203 30.875 49.1578 30.875C46.1109 30.875 44.1578 29.8906 44.1578 28.25C44.1578 26.5781 46.1109 25.6094 49.1578 25.5938ZM49.1578 26.9062C47.1266 26.9062 45.8922 27.3906 45.9078 28.25C45.8922 29.0781 47.1266 29.5312 49.1578 29.5312C51.2047 29.5312 52.4391 29.0781 52.4547 28.25C52.4391 27.3906 51.2047 26.9062 49.1578 26.9062ZM54.0797 17.4375V18.6094C54.0797 19.7188 54.0797 20.9062 53.6891 22.3594L51.9703 22.2031C52.3219 20.8281 52.3453 19.8359 52.3453 18.8125H44.2984V17.4375H54.0797ZM55.6422 23.1719V24.5781H42.8297V23.1719H47.7984V20.6094H49.5172V23.1719H55.6422ZM63.4259 25.5938C66.4884 25.6094 68.4259 26.5781 68.4416 28.25C68.4259 29.8906 66.4884 30.875 63.4259 30.875C60.3791 30.875 58.4259 29.8906 58.4259 28.25C58.4259 26.5781 60.3791 25.6094 63.4259 25.5938ZM63.4259 26.9062C61.3947 26.9062 60.1603 27.3906 60.1759 28.25C60.1603 29.0781 61.3947 29.5312 63.4259 29.5312C65.4728 29.5312 66.7072 29.0781 66.7228 28.25C66.7072 27.3906 65.4728 26.9062 63.4259 26.9062ZM68.3478 17.4375V18.6094C68.3478 19.7188 68.3478 20.9062 67.9572 22.3594L66.2384 22.2031C66.59 20.8281 66.6134 19.8359 66.6134 18.8125H58.5666V17.4375H68.3478ZM69.9103 23.1719V24.5781H57.0978V23.1719H62.0666V20.6094H63.7853V23.1719H69.9103ZM83.0847 16.7656V30.9062H81.3347V16.7656H83.0847ZM79.0222 18.0469V19.4688H73.9597V26.0312C76.5613 26.0234 78.1941 25.9453 80.0691 25.6094L80.2409 27.0469C78.2253 27.4219 76.3972 27.5 73.4128 27.5H72.2097V18.0469H79.0222ZM90.6653 20.7812C90.6653 22.9688 91.9622 25.4531 94.1966 26.4844L93.2278 27.8594C91.6341 27.1094 90.4544 25.5938 89.8216 23.8281C89.1809 25.7656 87.9466 27.4219 86.3216 28.2031L85.3059 26.8438C87.5559 25.7812 88.9153 23.125 88.9309 20.7812V19.5938H85.8528V18.1562H93.6184V19.5938H90.6653V20.7812ZM96.6653 16.7656V22.2656H98.8372V23.7188H96.6653V30.8906H94.9309V16.7656H96.6653ZM111.637 16.7812V26.9844H109.887V16.7812H111.637ZM112.027 29.2031V30.6094H102.293V25.9531H104.043V29.2031H112.027ZM103.933 17.7031C106.074 17.7031 107.73 19.1875 107.73 21.2344C107.73 23.3281 106.074 24.7812 103.933 24.7812C101.777 24.7812 100.121 23.3281 100.121 21.2344C100.121 19.1875 101.777 17.7031 103.933 17.7031ZM103.933 19.2188C102.73 19.2188 101.808 20.0156 101.824 21.2344C101.808 22.4844 102.73 23.2656 103.933 23.2656C105.105 23.2656 106.027 22.4844 106.027 21.2344C106.027 20.0156 105.105 19.2188 103.933 19.2188Z" fill="black"/>
</svg>
