<svg width="156" height="47" viewBox="0 0 156 47" fill="none" xmlns="http://www.w3.org/2000/svg">
<rect x="3" y="3" width="150" height="41" rx="20.5" fill="white"/>
<rect x="3" y="3" width="150" height="41" rx="20.5" stroke="#59E400" stroke-width="6"/>
<path d="M32.9912 25.5938C36.0537 25.6094 37.9912 26.5781 38.0069 28.25C37.9912 29.8906 36.0537 30.875 32.9912 30.875C29.9444 30.875 27.9912 29.8906 27.9912 28.25C27.9912 26.5781 29.9444 25.6094 32.9912 25.5938ZM32.9912 26.9062C30.96 26.9062 29.7256 27.3906 29.7412 28.25C29.7256 29.0781 30.96 29.5312 32.9912 29.5312C35.0381 29.5312 36.2725 29.0781 36.2881 28.25C36.2725 27.3906 35.0381 26.9062 32.9912 26.9062ZM37.9131 17.4375V18.6094C37.9131 19.7188 37.9131 20.9062 37.5225 22.3594L35.8037 22.2031C36.1553 20.8281 36.1787 19.8359 36.1787 18.8125H28.1319V17.4375H37.9131ZM39.4756 23.1719V24.5781H26.6631V23.1719H31.6319V20.6094H33.3506V23.1719H39.4756ZM47.2594 25.5938C50.3219 25.6094 52.2594 26.5781 52.275 28.25C52.2594 29.8906 50.3219 30.875 47.2594 30.875C44.2125 30.875 42.2594 29.8906 42.2594 28.25C42.2594 26.5781 44.2125 25.6094 47.2594 25.5938ZM47.2594 26.9062C45.2281 26.9062 43.9937 27.3906 44.0094 28.25C43.9937 29.0781 45.2281 29.5312 47.2594 29.5312C49.3062 29.5312 50.5406 29.0781 50.5562 28.25C50.5406 27.3906 49.3062 26.9062 47.2594 26.9062ZM52.1812 17.4375V18.6094C52.1812 19.7188 52.1812 20.9062 51.7906 22.3594L50.0719 22.2031C50.4234 20.8281 50.4469 19.8359 50.4469 18.8125H42.4V17.4375H52.1812ZM53.7437 23.1719V24.5781H40.9312V23.1719H45.9V20.6094H47.6187V23.1719H53.7437ZM66.9181 16.7656V30.9062H65.1681V16.7656H66.9181ZM62.8556 18.0469V19.4688H57.7931V26.0312C60.3947 26.0234 62.0275 25.9453 63.9025 25.6094L64.0744 27.0469C62.0587 27.4219 60.2306 27.5 57.2462 27.5H56.0431V18.0469H62.8556ZM74.4987 20.7812C74.4987 22.9688 75.7956 25.4531 78.03 26.4844L77.0612 27.8594C75.4675 27.1094 74.2878 25.5938 73.655 23.8281C73.0144 25.7656 71.78 27.4219 70.155 28.2031L69.1394 26.8438C71.3894 25.7812 72.7487 23.125 72.7644 20.7812V19.5938H69.6862V18.1562H77.4519V19.5938H74.4987V20.7812ZM80.4987 16.7656V22.2656H82.6706V23.7188H80.4987V30.8906H78.7644V16.7656H80.4987ZM95.47 16.7812V26.9844H93.72V16.7812H95.47ZM95.8606 29.2031V30.6094H86.1262V25.9531H87.8762V29.2031H95.8606ZM87.7669 17.7031C89.9075 17.7031 91.5637 19.1875 91.5637 21.2344C91.5637 23.3281 89.9075 24.7812 87.7669 24.7812C85.6106 24.7812 83.9544 23.3281 83.9544 21.2344C83.9544 19.1875 85.6106 17.7031 87.7669 17.7031ZM87.7669 19.2188C86.5637 19.2188 85.6419 20.0156 85.6575 21.2344C85.6419 22.4844 86.5637 23.2656 87.7669 23.2656C88.9387 23.2656 89.8606 22.4844 89.8606 21.2344C89.8606 20.0156 88.9387 19.2188 87.7669 19.2188ZM114.366 16.7656V30.8906H112.709V16.7656H114.366ZM111.491 17.0312V30.2031H109.85V23.0938H107.819V21.6875H109.85V17.0312H111.491ZM106.569 20.625C106.569 23.0156 107.428 25.4062 109.444 26.5625L108.412 27.8438C107.108 27.0625 106.241 25.7188 105.756 24.1094C105.256 25.8516 104.358 27.3359 103.022 28.1719L101.959 26.875C104.006 25.6406 104.897 23.0781 104.897 20.625V19.6875H102.444V18.2812H108.85V19.6875H106.569V20.625ZM127.618 16.7656V20.9062H129.587V22.3438H127.618V27.0938H125.884V16.7656H127.618ZM128.181 29.2031V30.6094H118.571V26.0156H120.306V29.2031H128.181ZM120.446 17.7031C122.587 17.7031 124.243 19.1875 124.259 21.2656C124.243 23.3125 122.587 24.8125 120.446 24.8125C118.306 24.8125 116.618 23.3125 116.634 21.2656C116.618 19.1875 118.306 17.7031 120.446 17.7031ZM120.446 19.2188C119.259 19.2188 118.321 20.0156 118.337 21.2656C118.321 22.4844 119.259 23.2812 120.446 23.2812C121.634 23.2812 122.556 22.4844 122.556 21.2656C122.556 20.0156 121.634 19.2188 120.446 19.2188Z" fill="black"/>
</svg>
