<svg width="187" height="47" viewBox="0 0 187 47" fill="none" xmlns="http://www.w3.org/2000/svg">
<rect x="0.5" y="0.5" width="186" height="46" rx="23" fill="white"/>
<rect x="0.5" y="0.5" width="186" height="46" rx="23" stroke="#D5D5D5"/>
<path d="M32 31.5C29.7667 31.5 27.875 30.725 26.325 29.175C24.775 27.625 24 25.7333 24 23.5C24 21.2667 24.775 19.375 26.325 17.825C27.875 16.275 29.7667 15.5 32 15.5C33.15 15.5 34.25 15.7373 35.3 16.212C36.35 16.6867 37.25 17.366 38 18.25V16.5C38 16.2167 38.096 15.9793 38.288 15.788C38.48 15.5967 38.7173 15.5007 39 15.5C39.2827 15.4993 39.5203 15.5953 39.713 15.788C39.9057 15.9807 40.0013 16.218 40 16.5V21.5C40 21.7833 39.904 22.021 39.712 22.213C39.52 22.405 39.2827 22.5007 39 22.5H34C33.7167 22.5 33.4793 22.404 33.288 22.212C33.0967 22.02 33.0007 21.7827 33 21.5C32.9993 21.2173 33.0953 20.98 33.288 20.788C33.4807 20.596 33.718 20.5 34 20.5H37.2C36.6667 19.5667 35.9377 18.8333 35.013 18.3C34.0883 17.7667 33.084 17.5 32 17.5C30.3333 17.5 28.9167 18.0833 27.75 19.25C26.5833 20.4167 26 21.8333 26 23.5C26 25.1667 26.5833 26.5833 27.75 27.75C28.9167 28.9167 30.3333 29.5 32 29.5C33.1333 29.5 34.171 29.2127 35.113 28.638C36.055 28.0633 36.784 27.2923 37.3 26.325C37.4333 26.0917 37.621 25.9293 37.863 25.838C38.105 25.7467 38.3507 25.7423 38.6 25.825C38.8667 25.9083 39.0583 26.0833 39.175 26.35C39.2917 26.6167 39.2833 26.8667 39.15 27.1C38.4667 28.4333 37.4917 29.5 36.225 30.3C34.9583 31.1 33.55 31.5 32 31.5Z" fill="black"/>
<path d="M65.3416 16.7812V27.5312H63.6072V24.75H61.5134V23.3594H63.6072V21.7812H61.5134V20.375H63.6072V16.7812H65.3416ZM61.4353 18.3438V19.7344H53.5447V18.3438H56.7009V16.7656H58.4353V18.3438H61.4353ZM57.5447 20.3125C59.4666 20.3125 60.8416 21.4375 60.8572 23.0625C60.8416 24.6875 59.4666 25.8125 57.5447 25.8125C55.6384 25.8125 54.2634 24.6875 54.2791 23.0625C54.2634 21.4375 55.6384 20.3125 57.5447 20.3125ZM57.5447 21.6719C56.5759 21.6875 55.8884 22.2031 55.9041 23.0625C55.8884 23.9531 56.5759 24.4688 57.5447 24.4688C58.5134 24.4688 59.2166 23.9531 59.2166 23.0625C59.2166 22.2031 58.5134 21.6875 57.5447 21.6719ZM65.6541 29.2031V30.6094H56.0291V26.6094H57.7947V29.2031H65.6541ZM72.3909 17.3906C74.5316 17.375 76.0941 18.5938 76.0941 20.3594C76.0941 22.0938 74.5316 23.3281 72.3909 23.3125C70.2659 23.3281 68.7191 22.0938 68.7191 20.3594C68.7191 18.5938 70.2659 17.375 72.3909 17.3906ZM72.3909 18.7969C71.2347 18.7812 70.3909 19.3906 70.4066 20.3594C70.3909 21.3125 71.2347 21.8906 72.3909 21.8906C73.5941 21.8906 74.4378 21.3125 74.4378 20.3594C74.4378 19.3906 73.5941 18.7812 72.3909 18.7969ZM79.5941 16.7812V30.875H77.8753V16.7812H79.5941ZM67.7972 24.2812C70.3441 24.2812 73.9066 24.2344 76.9534 23.7812L77.0784 25.0625C75.8597 25.2969 74.5941 25.4453 73.3597 25.5312V30.4531H71.6097V25.6406C70.305 25.6953 69.0784 25.7031 68.0159 25.7188L67.7972 24.2812ZM93.7841 16.7656V30.8906H92.0497V16.7656H93.7841ZM87.4716 21.25C87.4716 23.4062 88.7841 25.7031 91.0653 26.6562L90.1122 27.9844C88.4872 27.3047 87.2763 25.8906 86.6278 24.1875C85.995 25.9922 84.7763 27.5 83.1278 28.2188L82.1903 26.875C84.4403 25.875 85.7372 23.5 85.7372 21.25V20.5156H82.6278V19.125H85.7372V17.0625H87.4559V19.125H90.5028V20.5156H87.4716V21.25ZM113.43 24.6406V26.0469H107.82V30.875H106.102V26.0469H100.555V24.6406H113.43ZM112.242 17.5625V18.9375H108.008C108.109 20.4844 109.969 21.9688 112.758 22.3281L112.133 23.6875C109.727 23.3516 107.852 22.25 106.992 20.7188C106.133 22.25 104.258 23.3516 101.883 23.6875L101.227 22.3281C104 21.9688 105.859 20.4844 105.992 18.9375H101.742V17.5625H112.242ZM126.651 16.7812V27.2031H124.917V23.6562H122.073V24.9062H115.463V17.7031H117.198V19.9844H120.354V17.7031H122.073V19.2188H124.917V16.7812H126.651ZM126.963 29.2031V30.6094H117.338V26.1719H119.104V29.2031H126.963ZM117.198 23.5312H120.354V21.3281H117.198V23.5312ZM122.073 22.25H124.917V20.625H122.073V22.25ZM140.64 17.625C140.625 21.2656 138.234 23.8125 134.125 24.9688L133.422 23.6094C136.586 22.7422 138.461 21.0938 138.781 19.0312H134.187V17.625H140.64ZM145.156 16.7812V24.7344H143.422V21.6562H140.703V20.2344H143.422V16.7812H145.156ZM145.156 25.2969V30.7031H135.859V25.2969H145.156ZM137.562 26.6719V29.3281H143.437V26.6719H137.562ZM152.002 19.3281C152.002 20.9062 152.877 22.4688 154.737 23.2031L153.799 24.5312C152.557 24.0312 151.69 23.1094 151.19 21.9688C150.658 23.25 149.737 24.3281 148.393 24.9062L147.471 23.5625C149.408 22.7031 150.315 20.9219 150.33 19.3281V17.6094H152.002V19.3281ZM159.674 16.7812V25.3281H158.018V21.7344H156.612V25.25H154.987V17.0156H156.612V20.2969H158.018V16.7812H159.674ZM159.674 26V30.8906H157.94V27.3906H150.002V26H159.674Z" fill="black"/>
</svg>
