<svg width="72" height="109" viewBox="0 0 72 109" fill="none" xmlns="http://www.w3.org/2000/svg">
<path d="M56 23.5C63.1797 23.5 69 29.3203 69 36.5V73.9521C69 81.1318 63.1797 86.9521 56 86.9521H41.1748L40.8604 88.5186C39.7907 93.8513 32.1786 93.8832 31.0645 88.5596L30.7275 86.9521H16C8.8203 86.9521 3 81.1318 3 73.9521V36.5C3 29.3203 8.8203 23.5 16 23.5H56Z" fill="white" stroke="#59E400" stroke-width="6"/>
<path d="M26.7461 60.7461C25.375 60.7461 24.2148 59.6211 24.25 58.25C24.2148 56.8789 25.375 55.7539 26.7461 55.7539C28.082 55.7539 29.2422 56.8789 29.2422 58.25C29.2422 59.6211 28.082 60.7461 26.7461 60.7461ZM36.2383 60.7461C34.8672 60.7461 33.707 59.6211 33.7422 58.25C33.707 56.8789 34.8672 55.7539 36.2383 55.7539C37.5742 55.7539 38.7344 56.8789 38.7344 58.25C38.7344 59.6211 37.5742 60.7461 36.2383 60.7461ZM45.7305 60.7461C44.3594 60.7461 43.1992 59.6211 43.2344 58.25C43.1992 56.8789 44.3594 55.7539 45.7305 55.7539C47.0664 55.7539 48.2266 56.8789 48.2266 58.25C48.2266 59.6211 47.0664 60.7461 45.7305 60.7461Z" fill="black"/>
</svg>
